<svg width="36" height="36" viewBox="0 0 36 36" fill="none" xmlns="http://www.w3.org/2000/svg">
<path fill-rule="evenodd" clip-rule="evenodd" d="M17.3375 0.0096899C13.3393 0.156426 9.57885 1.57794 6.50887 4.10311C3.0118 6.97959 0.731197 11.0415 0.109059 15.5016C0.0763999 15.7357 -0.000107287 16.4116 -0.000107287 16.466C-0.000107287 16.4857 1.23078 16.488 11.9159 16.488H23.8319V18V19.512H11.9145H-0.00292969L0.00556631 19.5948C0.0514159 20.0412 0.0786319 20.2786 0.109189 20.4984C0.785355 25.3636 3.44368 29.7482 7.46629 32.6332C10.0971 34.52 13.1999 35.6637 16.4231 35.9347C17.3721 36.0145 18.4223 36.0197 19.3391 35.9491C22.892 35.6758 26.2218 34.3938 29.0249 32.2201C30.569 31.0227 31.8986 29.5929 32.9886 27.9576C34.659 25.4515 35.6588 22.6167 35.9266 19.6272C35.9822 19.0055 35.9918 18.7672 35.9918 18C35.9918 17.2328 35.9822 16.9945 35.9266 16.3728C35.5013 11.6243 33.209 7.26087 29.5217 4.18098C26.2609 1.45735 22.1451 -0.0231277 17.9063 0.0028931C17.6529 0.0044483 17.3969 0.0075011 17.3375 0.0096899Z" fill="#3AE27D"/>
</svg>
