<svg width="36" height="36" viewBox="0 0 36 36" fill="none" xmlns="http://www.w3.org/2000/svg">
<path fill-rule="evenodd" clip-rule="evenodd" d="M17.3033 0.00867433C15.4359 0.0902461 13.6384 0.43288 11.989 1.02163C6.73935 2.89557 2.66551 7.0479 0.907874 12.3162C0.424686 13.7645 0.149666 15.1839 0.0246714 16.8745C-0.00503865 17.2763 -0.00512862 18.721 0.0245274 19.1249C0.210255 21.6544 0.786335 23.8145 1.84659 25.957C2.73967 27.7617 3.8517 29.3136 5.26493 30.7274C8.03203 33.4957 11.5721 35.268 15.4408 35.8218C16.9341 36.0356 18.5495 36.0576 20.0552 35.8848C25.0565 35.3106 29.5673 32.6701 32.5535 28.5684C34.4212 26.0031 35.5869 22.9408 35.8913 19.8C35.9368 19.3303 35.9643 18.9232 35.9643 18.7183C35.9643 18.6233 35.9716 18.5578 35.9823 18.5578C35.9939 18.5578 36.0002 18.3524 36 17.9772C35.9998 17.5957 35.9937 17.4058 35.9823 17.4236C35.9703 17.4421 35.9647 17.3987 35.9645 17.2855C35.9633 16.5568 35.794 15.2065 35.5754 14.183C35.1001 11.9578 34.1515 9.75235 32.8535 7.85503C31.349 5.65579 29.3986 3.83198 27.0927 2.46794C24.3488 0.844879 21.1347 -0.0201665 17.9241 0.000356929C17.647 0.00212123 17.3676 0.00586586 17.3033 0.00867433ZM14.7796 7.58089C13.0303 8.61288 11.599 9.46147 11.599 9.46666C11.5988 9.47751 13.8977 10.8407 13.9297 10.8488C13.9413 10.8517 14.8564 10.3184 15.9633 9.66366C17.6677 8.65544 17.9814 8.47593 18.0129 8.49075C18.0333 8.50036 18.9444 9.03599 20.0374 9.68102C21.1305 10.3261 22.0345 10.8515 22.0463 10.8486C22.0797 10.8406 24.3754 9.4785 24.3754 9.46671C24.3754 9.46097 23.9604 9.21217 23.4531 8.91384C22.9459 8.61551 21.5116 7.77115 20.2658 7.03751C19.02 6.30385 17.9916 5.70381 17.9804 5.70408C17.9693 5.70435 16.5289 6.54892 14.7796 7.58089ZM8.70161 11.1487L7.54093 11.8379L7.53666 13.231L7.5324 14.6241L8.68079 15.3031C9.31242 15.6766 9.84272 15.9873 9.85924 15.9936C9.88715 16.0044 9.88929 15.9065 9.88929 14.6207V13.2362L11.0663 12.5439C11.7136 12.1632 12.2379 11.8462 12.2315 11.8395C12.2085 11.8161 9.89127 10.4564 9.87689 10.458C9.86887 10.4589 9.33999 10.7697 8.70161 11.1487ZM16.8341 11.1283C16.2148 11.4964 15.6909 11.8098 15.6699 11.8246C15.6335 11.8503 15.689 11.8855 16.8001 12.5416C17.4427 12.9211 17.9794 13.229 17.9928 13.2257C18.0451 13.2131 20.3411 11.8509 20.3297 11.8393C20.3054 11.8146 18.0134 10.4692 17.9871 10.4642C17.9723 10.4614 17.4534 10.7602 16.8341 11.1283ZM24.9319 11.1288C24.3127 11.4966 23.7887 11.8098 23.7676 11.8246C23.7312 11.8503 23.7827 11.8832 24.8275 12.4997C25.4314 12.8562 25.9615 13.1701 26.0053 13.1974L26.0849 13.2469V14.6256C26.0849 15.4523 26.0915 16.0019 26.1014 15.9983C26.1105 15.995 26.6408 15.6845 27.2799 15.3082L28.4419 14.6241L28.4376 13.231L28.4333 11.8379L27.2636 11.1478C26.6203 10.7683 26.0858 10.4582 26.0759 10.4589C26.066 10.4595 25.5513 10.7609 24.9319 11.1288ZM12.764 13.5307L11.5808 14.228L11.5853 15.6219L11.5898 17.0157L13.5703 18.1783C14.6595 18.8177 15.5726 19.3553 15.5992 19.3728L15.6477 19.4047V21.7872V24.1697L16.8217 24.858C17.6954 25.3703 18.0026 25.5421 18.0229 25.5298C18.0378 25.5207 18.5663 25.2108 19.1973 24.8411L20.3445 24.169L20.3448 21.782L20.3451 19.3949L22.3485 18.2197C23.4503 17.5734 24.3633 17.0346 24.3774 17.0225C24.3993 17.0037 24.4017 16.7986 24.3937 15.6077L24.3844 14.2149L23.2098 13.5235L22.0352 12.8321L20.0157 14.0235C18.9049 14.6788 17.988 15.2147 17.9781 15.2143C17.9682 15.2139 17.0584 14.6779 15.9563 14.0232C14.8542 13.3685 13.9513 12.8329 13.9498 12.8331C13.9484 12.8332 13.4148 13.1471 12.764 13.5307ZM7.53193 20.3904V24.1683L10.7198 26.0393C12.4731 27.0684 13.9145 27.913 13.9229 27.9163C13.9313 27.9196 13.9381 27.2958 13.9379 26.5301L13.9377 25.1379L11.918 23.9492L9.89829 22.7605L9.88929 20.3791L9.8803 17.9977L8.7556 17.3314C8.13701 16.965 7.60862 16.6534 7.58141 16.6389L7.53193 16.6125V20.3904ZM27.2636 17.3062L26.0939 17.9985L26.0849 20.38L26.0759 22.7615L24.0563 23.9497L22.0366 25.1379L22.0363 26.5301C22.0361 27.3148 22.0429 27.9197 22.0517 27.9163C22.0604 27.913 23.5018 27.0685 25.2549 26.0396L28.4423 24.169V20.3912C28.4423 18.3134 28.4403 16.6135 28.4378 16.6136C28.4353 16.6138 27.9069 16.9254 27.2636 17.3062ZM0 17.9997C0 18.3215 0.00242935 18.4531 0.00541654 18.2922C0.00840374 18.1313 0.00840374 17.868 0.00541654 17.7071C0.00242935 17.5462 0 17.6779 0 17.9997ZM11.5808 20.3795V21.7719L12.701 22.4279C13.3171 22.7888 13.8476 23.0994 13.8798 23.1181L13.9384 23.1522L13.9338 21.7629L13.9292 20.3736L12.8495 19.7345C12.2557 19.383 11.7273 19.071 11.6753 19.0413L11.5808 18.9872V20.3795ZM23.2102 19.6848L22.036 20.3797V21.7652C22.036 22.5272 22.0421 23.1475 22.0495 23.1437C22.0569 23.1398 22.5874 22.8297 23.2282 22.4546L24.3934 21.7725V20.3812C24.3934 19.6159 24.3914 18.9899 24.3889 18.9899C24.3864 18.99 23.856 19.3027 23.2102 19.6848ZM15.6305 27.5282L15.6312 28.9185L16.7998 29.6085C17.4426 29.988 17.9793 30.2958 17.9925 30.2926C18.0056 30.2894 18.54 29.9789 19.18 29.6026L20.3437 28.9185L20.3441 27.5292L20.3445 26.14L19.1973 26.816C18.5663 27.1879 18.033 27.4999 18.012 27.5095C17.9797 27.5242 17.8166 27.4338 16.9323 26.9108C16.3594 26.572 15.832 26.2595 15.7602 26.2163L15.6297 26.1378L15.6305 27.5282Z" fill="#3AE27D"/>
</svg>
