<svg width="47" height="17" viewBox="0 0 47 17" fill="none" xmlns="http://www.w3.org/2000/svg">
<path fill-rule="evenodd" clip-rule="evenodd" d="M14.6501 2.86923V12.9418L11.7722 15.8197H0.260742V1.4303H3.13861V2.86923H6.01648V1.4303H8.89436V2.86923H11.7722V1.4303H14.6501V2.86923ZM11.7722 10.9273V7.18604H3.13861V12.9418H9.75772L11.7722 10.9273Z" fill="#0C0E0E"/>
<path fill-rule="evenodd" clip-rule="evenodd" d="M40.7953 8.57699L40.8065 13.4789L41.6144 13.491L42.4223 13.503V11.3133C42.4223 9.00836 42.4377 8.79055 42.6221 8.4986C42.8836 8.08427 43.2703 7.90585 43.8526 7.93077C44.5293 7.95967 44.9654 8.3023 45.0775 8.89315C45.1043 9.03491 45.1226 10.0159 45.1226 11.3172V13.503L45.9305 13.491L46.7384 13.4789V10.956C46.7384 8.20785 46.737 8.18944 46.4829 7.6807C46.3038 7.32191 45.8376 6.86757 45.4675 6.69097C44.6282 6.29045 43.5943 6.27775 42.7932 6.65813C42.5289 6.78365 42.4687 6.79857 42.4477 6.74386C42.4338 6.70739 42.4223 6.002 42.4223 5.1763V3.67505H41.6031H40.784L40.7953 8.57699ZM18.6504 8.87575V13.5011L20.3879 13.5003C22.7041 13.4992 23.08 13.445 23.9749 12.9836C24.7622 12.5776 25.4076 11.78 25.6872 10.8675C25.962 9.97016 25.9905 8.16571 25.7466 7.1053C25.4561 5.84292 24.566 4.87055 23.3381 4.47419C22.7207 4.27497 22.4089 4.25058 20.4764 4.25049L18.6504 4.25045V8.87575ZM20.4211 8.87575V11.8634H21.3333C22.5688 11.8634 22.919 11.7687 23.4381 11.2943C23.9712 10.8072 24.14 10.2147 24.1393 8.83264C24.1386 7.30585 23.8451 6.58815 23.049 6.16678C22.5766 5.91666 22.404 5.88811 21.3648 5.88811H20.4211V8.87575ZM29.3411 6.43939C28.6233 6.58487 28.1906 6.80322 27.7489 7.24277C27.457 7.53331 27.2144 7.94746 27.0775 8.38888C27.0048 8.62302 26.9951 8.81148 26.9955 9.98228C26.996 11.4851 27.0246 11.6603 27.3591 12.204C27.8434 12.9913 28.5424 13.4106 29.6013 13.5492C30.3223 13.6435 31.2506 13.4726 31.836 13.1378C32.1838 12.9389 32.604 12.5258 32.7643 12.2249C32.9162 11.94 33.0588 11.4516 33.0198 11.35C32.9994 11.2968 32.8624 11.288 32.2127 11.298L31.4302 11.3101L31.3153 11.5182C31.1796 11.7639 31.0302 11.8883 30.7368 11.9998C30.2307 12.1921 29.5589 12.1468 29.1334 11.8918C28.772 11.6752 28.6005 11.3505 28.5923 10.8675L28.5885 10.6462L30.8394 10.6347L33.0903 10.6233L33.0706 9.63886C33.049 8.55928 33.0139 8.35608 32.76 7.84021C32.5048 7.32205 31.8781 6.79091 31.2646 6.57292C30.7458 6.38853 29.8863 6.32887 29.3411 6.43939ZM34.1099 7.31554L34.122 8.07905L35.7932 8.09064C36.7122 8.09702 37.4643 8.11308 37.4643 8.12627C37.4643 8.15828 34.8082 11.1668 34.2235 11.797L34.1003 11.9298L34.1001 12.7154L34.0999 13.5011H36.8888H39.6777V12.7265V11.9519H37.976C37.04 11.9519 36.2645 11.9361 36.2525 11.9167C36.2405 11.8974 36.2944 11.8127 36.3723 11.7286C36.4501 11.6445 36.8617 11.1873 37.2868 10.7126C37.7119 10.2379 38.0802 9.82768 38.1051 9.80103C38.13 9.77434 38.3011 9.58513 38.4854 9.38055C38.6696 9.17593 39.0032 8.80586 39.2268 8.55813L39.6334 8.10773V7.32988V6.55203H36.8656H34.0978L34.1099 7.31554ZM29.42 8.00907C28.8377 8.20754 28.5135 8.65922 28.5737 9.18819L28.5885 9.31836H30.0273H31.466L31.4587 9.04735C31.448 8.65015 31.2746 8.3602 30.91 8.12946C30.5787 7.91984 29.8536 7.86128 29.42 8.00907Z" fill="#0C0E0E"/>
</svg>
