<svg id="uuid-45909a30-1d40-4650-a52a-4aec66b7d9b6" data-name="Layer 1" xmlns="http://www.w3.org/2000/svg" xmlns:xlink="http://www.w3.org/1999/xlink" viewBox="0 0 274.53 274.53">
  <defs>
    <mask id="uuid-ea4a3f8c-0f27-4602-9043-fd9225546feb" data-name="mask" x="0" y="0" width="274.53" height="274.53" maskUnits="userSpaceOnUse">
      <g id="uuid-df9389eb-6ddf-457c-bf9d-eb97d47cff55" data-name="mask-ellipse1">
        <path d="M137.27,262.66c69.25,0,125.39-56.14,125.39-125.39S206.52,11.87,137.27,11.87,11.87,68.01,11.87,137.27s56.14,125.39,125.39,125.39Z" style="fill: #fff;"/>
      </g>
    </mask>
    <linearGradient id="uuid-6de84f8c-ec6b-485a-973e-ece3ab858dde" x1="-50.17" y1="251.86" x2="233.24" y2="78.43" gradientTransform="translate(0 274.42) scale(1 -1)" gradientUnits="userSpaceOnUse">
      <stop offset="0" stop-color="#002235"/>
      <stop offset="1" stop-color="#002235"/>
    </linearGradient>
  </defs>
  <g style="mask: url(#uuid-ea4a3f8c-0f27-4602-9043-fd9225546feb);">
    <path d="M274.53,0H0v274.53h274.53V0Z" style="fill: url(#uuid-6de84f8c-ec6b-485a-973e-ece3ab858dde);"/>
  </g>
  <path d="M125.2,76.6h12.6l-3.55,10.42h5.81l3.55-10.42h12.76l-3.63,10.42h28.67c15.18.97,32.14,7.67,31.9,29.39-.4,33.51-53.86,55.96-92.14,61.86l-16.31,47.16-15.26-45.22,23.1-67.43h31.09l-16.96,49.1c23.42-2.5,49.99-23.1,49.99-39.17s-7.91-15.99-19.22-15.99h-77.44l-6.7-19.7h48.13l3.55-10.42h.08Z" style="fill: #fff;"/>
  <path d="M137.27,251.82c-23.68,0-46.4-7.16-65.72-20.71-18.88-13.25-33.18-31.59-41.36-53.06l5.61-2.14c15.93,41.82,56.71,69.91,101.48,69.91,4.96,0,9.96-.34,14.84-1.01l.81,5.95c-5.15.7-10.42,1.06-15.65,1.06ZM163.02,248.92l-1.34-5.85c49.55-11.38,84.15-54.89,84.15-105.8,0-20.04-5.5-39.61-15.91-56.61l5.12-3.13c10.99,17.94,16.79,38.6,16.79,59.74,0,26.07-9,51.59-25.33,71.85-16.09,19.96-38.63,34.09-63.48,39.8ZM26.97,168.3c-2.82-10.05-4.25-20.5-4.25-31.04,0-41.84,22.81-80.35,59.52-100.5l2.89,5.26c-34.8,19.09-56.41,55.58-56.41,95.24,0,9.99,1.36,19.89,4.03,29.41l-5.78,1.62ZM224.47,72.6c-20.41-27.48-53.01-43.89-87.2-43.89-15.1,0-29.7,3.04-43.42,9.03l-2.4-5.5c14.48-6.33,29.89-9.53,45.82-9.53,36.08,0,70.48,17.31,92.02,46.31l-4.82,3.58Z" style="fill: #fff;"/>
</svg>