<svg width="36" height="36" viewBox="0 0 36 36" fill="none" xmlns="http://www.w3.org/2000/svg">
<path fill-rule="evenodd" clip-rule="evenodd" d="M15.9394 0.0284309C11.7996 0.558625 8.09327 2.37444 5.22278 5.279C2.69289 7.83909 1.05087 10.8966 0.283795 14.476C-0.0756132 16.1533 -0.0756132 19.8549 0.283795 21.5321C1.82987 28.747 7.22421 34.1735 14.3962 35.7288C16.0635 36.0904 19.7432 36.0904 21.4104 35.7288C28.4882 34.194 33.8917 28.8379 35.4476 21.8144C35.5937 21.1546 35.7147 20.3804 35.7163 20.094C35.718 19.8075 35.7826 19.5338 35.8597 19.4859C35.9395 19.4363 36 18.729 36 17.8463C36 16.8473 35.9501 16.325 35.8597 16.3812C35.7757 16.4334 35.7182 16.2526 35.7163 15.9309C35.7123 15.1894 35.2585 13.2075 34.8017 11.9359C33.2765 7.68894 30.0939 4.02076 26.1801 1.99905C23.5746 0.653177 21.419 0.100403 18.4645 0.020528C17.3457 -0.009672 16.2094 -0.00614395 15.9394 0.0284309ZM9.32679 9.70162C7.41626 10.7822 6.52406 11.3654 6.4159 11.6045C6.20435 12.0715 6.20323 18.0072 6.41463 18.4737C6.65045 18.9945 11.9473 21.9555 12.643 21.9555C13.0596 21.9555 14.1124 21.4184 17.8997 19.2742C21.4674 17.2543 22.7525 16.5932 23.1101 16.5939C23.6549 16.595 26.5181 18.1171 26.9135 18.6157C27.2484 19.0381 27.2792 22.7123 26.9518 23.1826C26.6752 23.58 23.8522 25.2074 23.2734 25.3032C22.9053 25.3642 22.5294 25.2161 21.2393 24.5022C19.0824 23.3084 19.1105 23.3424 19.0256 21.8162L18.9555 20.5547L17.8683 21.1893L16.7811 21.824V23.0745C16.7811 24.1985 16.814 24.3568 17.1071 24.6406C17.2865 24.8143 18.5963 25.6122 20.018 26.414C21.979 27.5198 22.7288 27.8729 23.125 27.8771C23.5325 27.8813 24.233 27.5546 26.3156 26.3888C27.7833 25.5672 29.1108 24.7332 29.2655 24.5352C29.5281 24.1995 29.5469 23.9646 29.5469 21.0258C29.5469 19.0872 29.4891 17.7487 29.3967 17.5445C29.2178 17.1495 29.3993 17.2676 26.1717 15.4474C24.2306 14.3528 23.4622 13.99 23.0939 13.994C22.7332 13.9978 21.8953 14.4042 19.9375 15.5247C18.4715 16.3638 16.3427 17.5824 15.2067 18.2328C13.7666 19.0573 13.001 19.4153 12.6779 19.4153C12.0413 19.4153 9.08354 17.7563 8.74475 17.2092C8.52998 16.8624 8.49996 16.528 8.53433 14.8677C8.58202 12.5631 8.45535 12.7583 10.718 11.506C12.6149 10.4562 12.6134 10.4562 14.6431 11.587C16.535 12.641 16.6408 12.7844 16.6408 14.2951C16.6408 14.9509 16.6895 15.4663 16.7491 15.4403C16.8086 15.4145 17.3452 15.119 17.9415 14.7837L19.0256 14.174L19.0251 13.0902C19.0244 11.4885 18.9621 11.4212 15.8302 9.64263C13.676 8.41924 13.0547 8.12726 12.6202 8.13446C12.2036 8.14124 11.4573 8.49644 9.32679 9.70162ZM0 18.0041C0 18.8967 0.0228663 19.2618 0.0506426 18.8155C0.0784188 18.3692 0.0784188 17.6389 0.0506426 17.1926C0.0228663 16.7463 0 17.1115 0 18.0041Z" fill="#3AE27D"/>
</svg>
