<svg width="184" height="33" viewBox="0 0 184 33" fill="none" xmlns="http://www.w3.org/2000/svg">
<path d="M10.2878 31.8902L0 1.02675H7.61299L12.51 17.1992C12.702 17.9399 12.8392 18.6944 12.9215 19.4625C13.0312 20.2307 13.0861 20.9303 13.0861 21.5613V22.7958H14.7322V21.5613C14.7322 20.9303 14.7733 20.2307 14.8556 19.4625C14.9654 18.6944 15.1162 17.9399 15.3083 17.1992L19.6292 3.08431H27.1187L31.4396 17.1992C31.6316 17.9399 31.7688 18.6944 31.8511 19.4625C31.9608 20.2307 32.0157 20.9303 32.0157 21.5613V22.7958H33.6618V21.5613C33.6618 20.9303 33.7029 20.2307 33.7852 19.4625C33.895 18.6944 34.0458 17.9399 34.2379 17.1992L39.1349 1.02675H46.7479L36.4601 31.8902H29.2586L25.2669 20.121C25.02 19.3802 24.828 18.6258 24.6908 17.8576C24.5536 17.062 24.4439 16.2939 24.3616 15.5532C24.2793 14.8124 24.2244 14.1266 24.197 13.4956C24.197 12.8646 24.197 12.3434 24.197 11.9318V10.9442H22.5509V11.9318C22.5509 12.3434 22.5372 12.8646 22.5098 13.4956C22.5098 14.1266 22.4686 14.8124 22.3863 15.5532C22.304 16.2939 22.1943 17.062 22.0571 17.8576C21.9199 18.6258 21.7279 19.3802 21.481 20.121L17.4893 31.8902H10.2878Z" fill="white"/>
<path d="M60.3285 7.4052H54.5673V14.4009H60.3285C63.4834 14.4009 65.0609 13.235 65.0609 10.9031C65.0609 8.57115 63.4834 7.4052 60.3285 7.4052ZM70.0402 26.2525L73.2911 31.8902H65.6781L59.2585 20.7794H54.5673V31.8902H47.3658V1.02675H60.3285C64.3887 1.02675 67.4614 1.89092 69.5464 3.61928C71.6314 5.3202 72.6739 7.74813 72.6739 10.9031C72.6739 12.6863 72.4269 14.1129 71.9331 15.1828C71.4393 16.2527 70.8358 17.0758 70.1225 17.6519C69.4092 18.2006 68.6547 18.5709 67.8592 18.763C67.091 18.9276 66.4051 19.0099 65.8016 19.0099C65.4449 19.0099 65.0746 18.9824 64.6905 18.9276C64.3339 18.8727 63.9909 18.8178 63.6617 18.763L63.2502 20.3267C64.1555 20.4364 64.9237 20.6422 65.5547 20.944C66.1857 21.2458 66.7481 21.6436 67.2419 22.1374C67.7357 22.6312 68.2021 23.221 68.641 23.9069C69.08 24.5927 69.5464 25.3746 70.0402 26.2525Z" fill="white"/>
<path d="M74.1286 31.8902L85.2395 1.02675H92.4409L103.552 31.8902H95.9388L93.8812 25.9233H83.7992L81.7416 31.8902H74.1286ZM91.6591 19.5448L90.3834 15.7178C90.1365 15.0045 89.9582 14.2638 89.8484 13.4956C89.7387 12.7 89.6838 11.9867 89.6838 11.3557V10.1212H88.0378V11.3557C88.0378 11.9867 87.9829 12.7 87.8732 13.4956C87.7634 14.2638 87.5851 15.0045 87.3382 15.7178L86.0625 19.5448H91.6591Z" fill="white"/>
<path d="M115.883 1.02675C119.943 1.02675 123.016 1.89092 125.101 3.61928C127.186 5.3202 128.228 7.74813 128.228 10.9031C128.228 14.058 127.186 16.4996 125.101 18.228C123.016 19.9289 119.943 20.7794 115.883 20.7794H112.179V31.8902H104.978V1.02675H115.883ZM112.179 7.4052V14.4009H115.883C119.038 14.4009 120.615 13.235 120.615 10.9031C120.615 8.57115 119.038 7.4052 115.883 7.4052H112.179Z" fill="white"/>
<path d="M129.048 1.02675H155.385V7.19944H145.92V31.8902H138.554V7.19944H129.048V1.02675Z" fill="white"/>
<path d="M168.568 25.9233C173.78 25.9233 176.386 22.7684 176.386 16.4585C176.386 10.1486 173.78 6.99369 168.568 6.99369C163.355 6.99369 160.749 10.1486 160.749 16.4585C160.749 22.7684 163.355 25.9233 168.568 25.9233ZM168.568 0.615234C173.588 0.615234 177.415 2.00066 180.049 4.77152C182.683 7.51494 183.999 11.4106 183.999 16.4585C183.999 21.5064 182.683 25.4158 180.049 28.1866C177.415 30.93 173.588 32.3017 168.568 32.3017C163.547 32.3017 159.72 30.93 157.086 28.1866C154.453 25.4158 153.136 21.5064 153.136 16.4585C153.136 11.4106 154.453 7.51494 157.086 4.77152C159.72 2.00066 163.547 0.615234 168.568 0.615234Z" fill="white"/>
</svg>
