<svg width="546" height="534" viewBox="0 0 546 534" fill="none" xmlns="http://www.w3.org/2000/svg">
<mask id="mask0_2050_7224" style="mask-type:luminance" maskUnits="userSpaceOnUse" x="0" y="-6" width="546" height="546">
<path d="M545.28 -5.97649H0V539.307H545.28V-5.97649Z" fill="white"/>
</mask>
<g mask="url(#mask0_2050_7224)">
<path d="M71.0691 125.505C118.357 78.2164 233.54 116.611 328.116 211.188C422.693 305.764 461.087 420.948 413.799 468.236C366.511 515.525 251.328 477.13 156.752 382.553C62.1753 287.977 23.781 172.793 71.0691 125.505Z" stroke="#3B4448" stroke-width="1.51467"/>
<path d="M79.7 116.874C126.988 69.5858 242.171 107.98 336.747 202.557C431.324 297.134 469.718 412.317 422.43 459.606C375.142 506.894 259.959 468.5 165.382 373.923C70.8062 279.346 32.4119 164.163 79.7 116.874Z" stroke="#3B4448" stroke-width="1.51467"/>
<path d="M88.3289 108.245C135.617 60.9566 250.8 99.3512 345.376 193.928C439.952 288.505 478.347 403.688 431.059 450.977C383.771 498.265 268.588 459.871 174.011 365.294C79.4351 270.717 41.0408 155.533 88.3289 108.245Z" stroke="#3B4448" stroke-width="1.51467"/>
<path d="M96.9598 99.6145C144.248 52.3261 259.431 90.7206 354.007 185.297C448.583 279.874 486.978 395.058 439.689 442.346C392.401 489.634 277.218 451.24 182.642 356.663C88.0659 262.086 49.6716 146.903 96.9598 99.6145Z" stroke="#3B4448" stroke-width="1.51467"/>
<path d="M105.59 90.9838C152.878 43.6954 268.061 82.0899 362.637 176.667C457.213 271.243 495.608 386.427 448.319 433.715C401.031 481.004 285.848 442.609 191.272 348.033C96.6958 253.456 58.3015 138.272 105.59 90.9838Z" stroke="#3B4448" stroke-width="1.51467"/>
<path d="M114.221 82.3532C161.509 35.0648 276.692 73.4593 371.268 168.036C465.844 262.613 504.238 377.796 456.95 425.085C409.662 472.373 294.479 433.979 199.903 339.402C105.327 244.825 66.9324 129.642 114.221 82.3532Z" stroke="#3B4448" stroke-width="1.51467"/>
<path d="M122.849 73.7241C170.138 26.4357 285.32 64.8302 379.897 159.407C474.473 253.984 512.867 369.167 465.579 416.456C418.291 463.744 303.108 425.35 208.532 330.773C113.956 236.196 75.5613 121.012 122.849 73.7241Z" stroke="#3B4448" stroke-width="1.51467"/>
<path d="M131.48 65.0934C178.768 17.805 293.951 56.1995 388.528 150.776C483.104 245.353 521.498 360.537 474.21 407.825C426.922 455.113 311.739 416.719 217.163 322.142C122.586 227.565 84.1921 112.382 131.48 65.0934Z" stroke="#3B4448" stroke-width="1.51467"/>
<path d="M140.111 56.4628C187.399 9.17445 302.582 47.569 397.158 142.146C491.735 236.723 530.129 351.906 482.841 399.194C435.553 446.483 320.37 408.088 225.794 313.512C131.217 218.935 92.823 103.751 140.111 56.4628Z" stroke="#3B4448" stroke-width="1.51467"/>
<path d="M148.741 47.8322C196.029 0.543833 311.212 38.9383 405.788 133.515C500.365 228.092 538.759 343.275 491.471 390.564C444.183 437.852 329 399.458 234.423 304.881C139.847 210.304 101.453 95.1206 148.741 47.8322Z" stroke="#3B4448" stroke-width="1.51467"/>
<path d="M157.37 39.2031C204.658 -8.08526 319.841 30.3093 414.417 124.886C508.993 219.463 547.388 334.646 500.1 381.935C452.812 429.223 337.629 390.829 243.052 296.252C148.476 201.675 110.082 86.4915 157.37 39.2031Z" stroke="#3B4448" stroke-width="1.51467"/>
<path d="M166.001 30.5725C213.289 -16.7159 328.472 21.6786 423.048 116.255C517.624 210.832 556.019 326.016 508.731 373.304C461.442 420.593 346.259 382.198 251.683 287.621C157.107 193.044 118.713 77.8609 166.001 30.5725Z" stroke="#3B4448" stroke-width="1.51467"/>
</g>
</svg>
