<svg width="728" height="63" viewBox="0 0 728 63" fill="none" xmlns="http://www.w3.org/2000/svg">
<path d="M0.5 41.5V41.6832L0.618307 41.823L17.1183 61.323L17.5049 61.7798L17.8857 61.3182L34 41.7857L50.1143 61.3182L50.5 61.7857L50.8857 61.3182L67 41.7857L83.1143 61.3182L83.5 61.7857L83.8857 61.3182L100 41.7857L116.114 61.3182L116.5 61.7857L116.886 61.3182L133 41.7857L149.114 61.3182L149.5 61.7857L149.886 61.3182L166 41.7857L182.114 61.3182L182.5 61.7857L182.886 61.3182L199 41.7857L215.114 61.3182L215.5 61.7857L215.886 61.3182L232 41.7857L248.114 61.3182L248.5 61.7857L248.886 61.3182L265 41.7857L281.114 61.3182L281.5 61.7857L281.886 61.3182L298 41.7857L314.114 61.3182L314.5 61.7857L314.886 61.3182L331 41.7857L347.114 61.3182L347.495 61.7799L347.882 61.3229L364.403 41.7857L380.11 61.3134L380.495 61.7916L380.886 61.3182L396.995 41.7916L412.698 61.3134L413.073 61.7801L413.465 61.3274L430.398 41.7801L446.11 61.3134L446.495 61.7916L446.886 61.3182L463 41.7857L479.114 61.3182L479.5 61.7857L479.886 61.3182L496 41.7857L512.114 61.3182L512.5 61.7857L512.886 61.3182L529 41.7857L545.114 61.3182L545.5 61.7857L545.886 61.3182L562 41.7857L578.114 61.3182L578.5 61.7857L578.886 61.3182L595 41.7857L611.114 61.3182L611.5 61.7857L611.886 61.3182L628 41.7857L644.114 61.3182L644.5 61.7857L644.886 61.3182L661 41.7857L677.114 61.3182L677.5 61.7857L677.886 61.3182L694 41.7857L710.114 61.3182L710.5 61.7857L710.886 61.3182L727.386 41.3182L727.5 41.1796V41V1V0.5H727H1H0.5V1V41.5Z" fill="#0C0E0E" stroke="#2F373A"/>
</svg>
